HIERARCHY
ROOT Hips
{
    OFFSET 0.000000 0.000000 0.000000
    CHANNELS 6 Xposition Yposition Zposition Zrotation Xrotation Yrotation
    JOINT Spine
    {
        OFFSET -0.000000 7.933882 0.000000
        CHANNELS 3 Zrotation Xrotation Yrotation
        JOINT Spine1
        {
            OFFSET -0.000000 22.729401 0.000000
            CHANNELS 3 Zrotation Xrotation Yrotation
            JOINT Neck
            {
                OFFSET -0.000000 22.636055 2.057823
                CHANNELS 3 Zrotation Xrotation Yrotation
                JOINT Head
                {
                    OFFSET -0.000000 13.545651 -1.935093
                    CHANNELS 3 Zrotation Xrotation Yrotation
                    End Site
                    {
                        OFFSET -0.000000 24.188663 0.000000
                    }
                }
            }
            JOINT LeftShoulder
            {
                OFFSET 3.842306 20.701504 -0.286599
                CHANNELS 3 Zrotation Xrotation Yrotation
                JOINT LeftArm
                {
                    OFFSET 11.351986 0.000000 0.000000
                    CHANNELS 3 Zrotation Xrotation Yrotation
                    JOINT LeftForeArm
                    {
                        OFFSET 28.321957 0.000000 0.000000
                        CHANNELS 3 Zrotation Xrotation Yrotation
                        JOINT LeftHand
                        {
                            OFFSET 27.250586 0.000000 0.000000
                            CHANNELS 3 Zrotation Xrotation Yrotation
                            End Site
                            {
                                OFFSET 14.513199 0.000000 0.000000
                            }
                        }
                    }
                }
            }
            JOINT RightShoulder
            {
                OFFSET -3.895451 20.701504 -0.286599
                CHANNELS 3 Zrotation Xrotation Yrotation
                JOINT RightArm
                {
                    OFFSET -11.351986 0.000000 0.000000
                    CHANNELS 3 Zrotation Xrotation Yrotation
                    JOINT RightForeArm
                    {
                        OFFSET -28.321957 0.000000 0.000000
                        CHANNELS 3 Zrotation Xrotation Yrotation
                        JOINT RightHand
                        {
                            OFFSET -27.250586 0.000000 0.000000
                            CHANNELS 3 Zrotation Xrotation Yrotation
                            End Site
                            {
                                OFFSET -14.513199 0.000000 0.000000
                            }
                        }
                    }
                }
            }
        }
    }
    JOINT LeftUpLeg
    {
        OFFSET 9.675466 0.000000 0.000000
        CHANNELS 3 Zrotation Xrotation Yrotation
        JOINT LeftLeg
        {
            OFFSET -0.000000 -34.562881 0.000000
            CHANNELS 3 Zrotation Xrotation Yrotation
            JOINT LeftFoot
            {
                OFFSET -0.000000 -42.809692 0.000000
                CHANNELS 3 Zrotation Xrotation Yrotation
                JOINT LeftToeBase
                {
                    OFFSET -0.000000 -6.289052 14.513199
                    CHANNELS 3 Zrotation Xrotation Yrotation
                    End Site
                    {
                        OFFSET -0.000000 0.000000 3.870186
                    }
                }
            }
        }
    }
    JOINT RightUpLeg
    {
        OFFSET -9.675466 0.000000 0.000000
        CHANNELS 3 Zrotation Xrotation Yrotation
        JOINT RightLeg
        {
            OFFSET -0.000000 -34.562881 0.000000
            CHANNELS 3 Zrotation Xrotation Yrotation
            JOINT RightFoot
            {
                OFFSET -0.000000 -42.809692 0.000000
                CHANNELS 3 Zrotation Xrotation Yrotation
                JOINT RightToeBase
                {
                    OFFSET -0.000000 -6.289052 14.513199
                    CHANNELS 3 Zrotation Xrotation Yrotation
                    End Site
                    {
                        OFFSET -0.000000 0.000000 3.870186
                    }
                }
            }
        }
    }
}
MOTION
Frames:    11
Frame Time:    0.010000
-6.187743    81.170578    -37.690495    0.412517    18.080667    1.701179    -1.005870    2.729590    -0.968608    0.771818    10.075230    -1.060611    3.280844    17.172432    0.538778    -1.500813    31.706219    0.811004    1.096997    10.846146    -1.800156    -11.214111    68.326225    -51.113789    31.147772    -31.580099    -19.205799    -21.787720    -26.723516    -0.810774    -5.588580    9.485144    5.738716    18.507198    70.974075    52.370518    -34.443756    -28.530354    9.459726    26.633638    -23.176371    12.674647    14.655507    -44.677086    8.612386    -10.407413    38.486149    -10.544127    3.139442    -12.963477    15.843499    0.000000    0.000000    0.000000    -19.804842    -45.310982    -8.977391    13.593594    38.682098    -0.511661    3.499053    -12.342793    -5.370621    0.000000    0.000000    0.000000    
-6.036843    85.414589    -43.192848    0.974132    59.374790    -0.047074    -1.346221    -34.495029    -0.931457    0.329514    6.028984    -0.530928    2.989249    17.188290    0.654851    -1.252474    31.606651    0.892161    0.989937    10.682654    -1.818310    -10.675908    67.913589    -51.648750    30.789665    -31.248306    -18.695524    -21.159914    -26.644075    -0.354983    -5.753177    9.459229    5.907712    18.257658    70.784271    52.701298    -34.224476    -28.346907    9.442615    24.203281    -23.496691    11.529435    89.856064    -82.068626    85.730324    -8.184896    35.903652    -3.019292    -2.558892    4.412084    13.799443    0.000000    0.000000    0.000000    -106.212906    -79.881004    -98.271523    9.059531    37.099937    -8.446268    7.408454    8.731620    -1.964318    0.000000    0.000000    0.000000    
-6.061587    85.239708    -43.300076    0.873698    59.517986    0.174606    -1.872608    -34.811180    -0.998737    0.973210    6.540164    -0.467284    3.426250    16.838543    0.403126    -1.655243    31.474686    0.678817    1.312308    10.411343    -2.474361    -10.266771    67.263008    -52.628372    30.662672    -31.058836    -17.898611    -22.008715    -26.601479    -0.718191    -5.777042    9.099536    5.203808    16.444502    70.864594    54.126976    -33.885582    -28.465994    9.761740    22.165972    -23.966049    10.365100    93.980515    -82.126694    89.726982    -8.377417    36.389324    -2.742365    -2.556454    4.282917    13.660673    0.000000    0.000000    0.000000    -108.816177    -79.575752    -100.826607    9.284554    37.591419    -8.731519    7.371131    8.541527    -1.781504    0.000000    0.000000    0.000000    
-8.927994    85.675491    -22.937525    -0.535271    6.828224    -1.491162    2.536525    -23.585489    1.146104    -2.778904    14.845054    0.978622    2.753484    2.569098    0.461332    -1.241860    4.596107    0.005546    -0.689202    14.086225    3.953511    -19.651623    81.573532    -47.226448    23.617844    -29.559290    -24.154129    -21.321001    -25.272543    1.586762    -4.871507    13.467846    3.148976    -13.512812    83.421532    89.829681    -21.911579    -27.619600    8.748230    12.375809    -24.377983    17.481630    10.093327    3.653796    -2.400470    -2.411093    -3.649407    -4.470742    -2.996338    -8.104066    16.437279    0.000000    0.000000    0.000000    -9.275222    1.228379    4.532706    3.071585    -3.143210    0.596779    36.718842    -5.729847    13.792972    0.000000    0.000000    0.000000    
-8.936668    85.664497    -22.911701    -0.578729    6.825877    -1.474761    2.658695    -23.529081    1.148198    -3.038728    14.770204    0.988317    3.001513    2.632543    0.529243    -1.290271    4.569933    0.041757    -0.388306    14.122957    4.065205    -20.837933    81.566734    -46.565140    23.954315    -29.484724    -23.601664    -21.490063    -25.213840    1.434063    -4.601875    13.495271    3.124489    -11.692641    83.461784    88.148109    -22.010162    -28.128977    8.391145    13.174630    -24.859564    17.347591    10.091877    4.015259    -2.620911    -2.280819    -4.254095    -4.110312    -3.116768    -7.876663    16.303619    0.000000    0.000000    0.000000    -9.233244    1.251021    4.571297    3.075659    -3.147559    0.580575    36.715492    -5.757628    13.794479    0.000000    0.000000    0.000000    
-8.951875    85.651756    -22.890940    -0.634935    6.885135    -1.423940    2.559358    -23.617006    1.097750    -2.859932    14.856706    0.935606    3.128771    2.582559    0.556895    -1.495650    4.617058    0.032589    -0.315989    14.074384    4.065352    -21.627295    81.614655    -46.225849    24.053734    -29.629690    -23.191055    -21.287184    -25.451778    1.591367    -4.555559    13.440651    2.994274    -8.088648    83.441566    84.767807    -22.071329    -28.467855    7.993649    14.527147    -25.102360    17.200850    10.098264    4.259062    -2.725949    -2.129325    -4.767213    -3.953068    -3.236454    -7.717526    16.237293    0.000000    0.000000    0.000000    -9.167922    1.207725    4.590589    3.076267    -3.132034    0.464975    36.712139    -5.740911    13.860779    0.000000    0.000000    0.000000    
-8.967518    85.637657    -22.876402    -0.684307    6.944254    -1.349763    2.444412    -23.669918    1.042937    -2.690859    14.880426    0.882170    3.208472    2.547465    0.561943    -1.589949    4.686046    0.017828    -0.238374    14.061226    4.007660    -22.305799    81.648392    -45.963585    23.934092    -29.925121    -22.940187    -20.371138    -25.933908    2.295897    -4.450466    13.437860    2.837378    -4.394606    83.353699    81.272942    -22.078461    -29.127970    7.704897    15.454151    -25.813221    16.331165    10.131811    4.401259    -2.819606    -2.046657    -5.110810    -3.841641    -3.323865    -7.619923    16.189686    0.000000    0.000000    0.000000    -9.116996    1.160608    4.533334    3.103735    -3.078671    0.460393    36.692028    -5.820925    13.889208    0.000000    0.000000    0.000000    
-8.981501    85.621880    -22.870167    -0.731489    7.035853    -1.244005    2.335305    -23.791370    0.986574    -2.560968    14.993170    0.831802    2.932325    2.535627    0.489385    -1.064470    4.589165    0.029840    -0.113958    14.022271    3.918370    -22.162169    81.750641    -46.500454    24.030403    -30.093184    -22.450819    -20.507572    -26.170984    2.179285    -4.316656    13.394493    2.659241    -1.833943    83.310638    78.865730    -22.196075    -29.874069    7.345884    16.789839    -26.540506    15.758458    10.183280    4.432793    -2.924287    -1.989676    -5.356421    -3.820956    -3.368360    -7.547994    16.168629    0.000000    0.000000    0.000000    -9.073099    1.100227    4.530044    3.100168    -3.090054    0.446907    36.705086    -5.866411    13.875768    0.000000    0.000000    0.000000    
-8.993739    85.612358    -22.862068    -0.778071    7.079170    -1.093925    2.215194    -23.843222    0.889839    -2.438823    15.076520    0.744986    3.012850    2.490605    0.490472    -1.126064    4.601090    0.013361    -0.011477    13.958530    3.825740    -21.960117    81.872208    -47.043907    23.955879    -30.267464    -22.099545    -20.121241    -26.479342    2.500098    -4.182729    13.386693    2.511163    -0.048751    83.259537    77.201172    -22.422935    -30.574316    6.947807    18.511192    -27.167988    15.319510    10.248574    4.427057    -3.023173    -1.977559    -5.475451    -3.862825    -3.436574    -7.533638    16.194162    0.000000    0.000000    0.000000    -9.030230    1.104698    4.481982    3.119270    -3.094287    0.405404    36.683895    -5.915357    13.851000    0.000000    0.000000    0.000000    
-9.007647    85.606697    -22.861353    -0.808145    7.117937    -0.920140    2.083439    -23.912880    0.777109    -2.352085    15.235268    0.650671    3.080181    2.382555    0.499140    -1.138075    4.598374    0.009273    0.129450    13.880097    3.751635    -20.000856    82.076004    -49.302177    23.845655    -30.538908    -21.678087    -19.676256    -26.902237    2.809199    -4.065025    13.325514    2.371385    4.731750    83.030464    72.666885    -22.364599    -31.405706    6.697193    19.688736    -28.034658    14.653197    10.309227    4.341295    -3.031255    -2.002458    -5.474088    -3.985795    -3.515669    -7.561459    16.188240    0.000000    0.000000    0.000000    -8.967641    1.085124    4.354972    3.085102    -3.039812    0.355454    36.693157    -5.961409    13.886040    0.000000    0.000000    0.000000    
-9.018317    85.606827    -22.868771    -0.820766    7.142825    -0.733492    1.738834    -23.958170    0.622114    -1.889619    15.384034    0.508656    2.966898    2.280654    0.494121    -1.136201    4.573398    0.016115    0.046788    13.856146    3.609632    -17.195459    82.226555    -52.328461    23.833546    -30.762682    -21.063671    -20.883995    -27.138891    1.930856    -4.104731    13.268016    2.181820    6.963341    82.910805    70.599075    -22.803379    -32.169083    6.015554    22.271835    -28.573566    14.920292    10.359267    4.200044    -3.015105    -2.048417    -5.376910    -4.125401    -3.531171    -7.570674    16.128462    0.000000    0.000000    0.000000    -8.959929    1.093203    4.300742    3.109035    -3.013784    0.332060    36.662212    -6.069394    13.811977    0.000000    0.000000    0.000000    
